<mxfile host="Electron" modified="2024-02-07T13:41:55.985Z" agent="Mozilla/5.0 (Windows NT 10.0; Win64; x64) AppleWebKit/537.36 (KHTML, like Gecko) draw.io/22.1.18 Chrome/120.0.6099.199 Electron/28.1.2 Safari/537.36" etag="8VrYSG4jTDYd_2opB_AI" version="22.1.18" type="device">
  <diagram name="Page-1" id="16XjI0kiUn-NuyR_T_i7">
    <mxGraphModel dx="1011" dy="1060" grid="1" gridSize="10" guides="1" tooltips="1" connect="1" arrows="1" fold="1" page="1" pageScale="1" pageWidth="850" pageHeight="1100" math="0" shadow="0">
      <root>
        <mxCell id="0" />
        <mxCell id="1" parent="0" />
        <mxCell id="dFhbQ2jlh1eT3Z2HHcco-13" style="rounded=0;orthogonalLoop=1;jettySize=auto;html=1;exitX=0.5;exitY=1;exitDx=0;exitDy=0;entryX=0.5;entryY=0;entryDx=0;entryDy=0;edgeStyle=orthogonalEdgeStyle;curved=1;" parent="1" source="dFhbQ2jlh1eT3Z2HHcco-1" target="dFhbQ2jlh1eT3Z2HHcco-2" edge="1">
          <mxGeometry relative="1" as="geometry" />
        </mxCell>
        <mxCell id="NCGhJBN-21cvcJwLRavN-51" style="edgeStyle=orthogonalEdgeStyle;rounded=0;orthogonalLoop=1;jettySize=auto;html=1;exitX=0.5;exitY=1;exitDx=0;exitDy=0;entryX=0.5;entryY=0;entryDx=0;entryDy=0;curved=1;" edge="1" parent="1" source="dFhbQ2jlh1eT3Z2HHcco-1" target="NCGhJBN-21cvcJwLRavN-49">
          <mxGeometry relative="1" as="geometry" />
        </mxCell>
        <mxCell id="dFhbQ2jlh1eT3Z2HHcco-1" value="&lt;font size=&quot;3&quot;&gt;&lt;b&gt;AK&lt;/b&gt;&lt;/font&gt;" style="ellipse;whiteSpace=wrap;html=1;fillColor=#FFFFFF;" parent="1" vertex="1">
          <mxGeometry x="340" y="150" width="50" height="50" as="geometry" />
        </mxCell>
        <mxCell id="dFhbQ2jlh1eT3Z2HHcco-15" style="edgeStyle=orthogonalEdgeStyle;rounded=0;orthogonalLoop=1;jettySize=auto;html=1;exitX=0.5;exitY=1;exitDx=0;exitDy=0;entryX=0.5;entryY=0;entryDx=0;entryDy=0;curved=1;" parent="1" source="dFhbQ2jlh1eT3Z2HHcco-2" target="dFhbQ2jlh1eT3Z2HHcco-4" edge="1">
          <mxGeometry relative="1" as="geometry" />
        </mxCell>
        <mxCell id="dFhbQ2jlh1eT3Z2HHcco-2" value="&lt;font size=&quot;3&quot;&gt;&lt;b&gt;P&lt;/b&gt;&lt;/font&gt;" style="ellipse;whiteSpace=wrap;html=1;fillColor=#FFFFFF;" parent="1" vertex="1">
          <mxGeometry x="280" y="240" width="50" height="50" as="geometry" />
        </mxCell>
        <mxCell id="dFhbQ2jlh1eT3Z2HHcco-16" style="edgeStyle=orthogonalEdgeStyle;rounded=0;orthogonalLoop=1;jettySize=auto;html=1;exitX=0.5;exitY=1;exitDx=0;exitDy=0;entryX=0.5;entryY=0;entryDx=0;entryDy=0;curved=1;" parent="1" source="dFhbQ2jlh1eT3Z2HHcco-4" target="dFhbQ2jlh1eT3Z2HHcco-5" edge="1">
          <mxGeometry relative="1" as="geometry" />
        </mxCell>
        <mxCell id="dFhbQ2jlh1eT3Z2HHcco-4" value="&lt;font size=&quot;3&quot;&gt;&lt;b&gt;I.&lt;/b&gt;&lt;/font&gt;" style="ellipse;whiteSpace=wrap;html=1;fillColor=#FFFFFF;" parent="1" vertex="1">
          <mxGeometry x="230" y="330" width="50" height="50" as="geometry" />
        </mxCell>
        <mxCell id="NCGhJBN-21cvcJwLRavN-9" style="edgeStyle=orthogonalEdgeStyle;rounded=0;orthogonalLoop=1;jettySize=auto;html=1;exitX=0.5;exitY=1;exitDx=0;exitDy=0;entryX=0.5;entryY=0;entryDx=0;entryDy=0;curved=1;" edge="1" parent="1" source="dFhbQ2jlh1eT3Z2HHcco-5" target="NCGhJBN-21cvcJwLRavN-7">
          <mxGeometry relative="1" as="geometry" />
        </mxCell>
        <mxCell id="dFhbQ2jlh1eT3Z2HHcco-5" value="&lt;font size=&quot;3&quot;&gt;&lt;b&gt;S&lt;/b&gt;&lt;/font&gt;" style="ellipse;whiteSpace=wrap;html=1;fillColor=#FFFFFF;" parent="1" vertex="1">
          <mxGeometry x="270" y="420" width="50" height="50" as="geometry" />
        </mxCell>
        <mxCell id="NCGhJBN-21cvcJwLRavN-7" value="&lt;font size=&quot;3&quot;&gt;&lt;b&gt;.&lt;/b&gt;&lt;/font&gt;" style="ellipse;whiteSpace=wrap;html=1;fillColor=#FFFFFF;" vertex="1" parent="1">
          <mxGeometry x="290" y="500" width="50" height="50" as="geometry" />
        </mxCell>
        <mxCell id="NCGhJBN-21cvcJwLRavN-11" value="We just want to delete K" style="text;html=1;strokeColor=none;fillColor=none;align=center;verticalAlign=middle;whiteSpace=wrap;rounded=0;" vertex="1" parent="1">
          <mxGeometry x="275" y="140" width="60" height="30" as="geometry" />
        </mxCell>
        <mxCell id="NCGhJBN-21cvcJwLRavN-12" value="" style="shape=flexArrow;endArrow=classic;html=1;rounded=0;" edge="1" parent="1">
          <mxGeometry width="50" height="50" relative="1" as="geometry">
            <mxPoint x="480" y="340" as="sourcePoint" />
            <mxPoint x="710" y="340" as="targetPoint" />
          </mxGeometry>
        </mxCell>
        <mxCell id="NCGhJBN-21cvcJwLRavN-49" value="&lt;font size=&quot;3&quot;&gt;&lt;b&gt;.&lt;/b&gt;&lt;/font&gt;" style="ellipse;whiteSpace=wrap;html=1;fillColor=#FFFFFF;" vertex="1" parent="1">
          <mxGeometry x="390" y="240" width="50" height="50" as="geometry" />
        </mxCell>
        <mxCell id="NCGhJBN-21cvcJwLRavN-52" style="rounded=0;orthogonalLoop=1;jettySize=auto;html=1;exitX=0.5;exitY=1;exitDx=0;exitDy=0;entryX=0.5;entryY=0;entryDx=0;entryDy=0;edgeStyle=orthogonalEdgeStyle;curved=1;" edge="1" parent="1" source="NCGhJBN-21cvcJwLRavN-54" target="NCGhJBN-21cvcJwLRavN-56">
          <mxGeometry relative="1" as="geometry" />
        </mxCell>
        <mxCell id="NCGhJBN-21cvcJwLRavN-54" value="&lt;font size=&quot;3&quot;&gt;&lt;b&gt;A&lt;/b&gt;&lt;/font&gt;" style="ellipse;whiteSpace=wrap;html=1;fillColor=#FFFFFF;" vertex="1" parent="1">
          <mxGeometry x="910" y="160" width="50" height="50" as="geometry" />
        </mxCell>
        <mxCell id="NCGhJBN-21cvcJwLRavN-55" style="edgeStyle=orthogonalEdgeStyle;rounded=0;orthogonalLoop=1;jettySize=auto;html=1;exitX=0.5;exitY=1;exitDx=0;exitDy=0;entryX=0.5;entryY=0;entryDx=0;entryDy=0;curved=1;" edge="1" parent="1" source="NCGhJBN-21cvcJwLRavN-56" target="NCGhJBN-21cvcJwLRavN-58">
          <mxGeometry relative="1" as="geometry" />
        </mxCell>
        <mxCell id="NCGhJBN-21cvcJwLRavN-56" value="&lt;font size=&quot;3&quot;&gt;&lt;b&gt;P&lt;/b&gt;&lt;/font&gt;" style="ellipse;whiteSpace=wrap;html=1;fillColor=#FFFFFF;" vertex="1" parent="1">
          <mxGeometry x="850" y="250" width="50" height="50" as="geometry" />
        </mxCell>
        <mxCell id="NCGhJBN-21cvcJwLRavN-57" style="edgeStyle=orthogonalEdgeStyle;rounded=0;orthogonalLoop=1;jettySize=auto;html=1;exitX=0.5;exitY=1;exitDx=0;exitDy=0;entryX=0.5;entryY=0;entryDx=0;entryDy=0;curved=1;" edge="1" parent="1" source="NCGhJBN-21cvcJwLRavN-58" target="NCGhJBN-21cvcJwLRavN-60">
          <mxGeometry relative="1" as="geometry" />
        </mxCell>
        <mxCell id="NCGhJBN-21cvcJwLRavN-58" value="&lt;font size=&quot;3&quot;&gt;&lt;b&gt;I.&lt;/b&gt;&lt;/font&gt;" style="ellipse;whiteSpace=wrap;html=1;fillColor=#FFFFFF;" vertex="1" parent="1">
          <mxGeometry x="800" y="340" width="50" height="50" as="geometry" />
        </mxCell>
        <mxCell id="NCGhJBN-21cvcJwLRavN-59" style="edgeStyle=orthogonalEdgeStyle;rounded=0;orthogonalLoop=1;jettySize=auto;html=1;exitX=0.5;exitY=1;exitDx=0;exitDy=0;entryX=0.5;entryY=0;entryDx=0;entryDy=0;curved=1;" edge="1" parent="1" source="NCGhJBN-21cvcJwLRavN-60" target="NCGhJBN-21cvcJwLRavN-61">
          <mxGeometry relative="1" as="geometry" />
        </mxCell>
        <mxCell id="NCGhJBN-21cvcJwLRavN-60" value="&lt;font size=&quot;3&quot;&gt;&lt;b&gt;S&lt;/b&gt;&lt;/font&gt;" style="ellipse;whiteSpace=wrap;html=1;fillColor=#FFFFFF;" vertex="1" parent="1">
          <mxGeometry x="840" y="430" width="50" height="50" as="geometry" />
        </mxCell>
        <mxCell id="NCGhJBN-21cvcJwLRavN-61" value="&lt;font size=&quot;3&quot;&gt;&lt;b&gt;.&lt;/b&gt;&lt;/font&gt;" style="ellipse;whiteSpace=wrap;html=1;fillColor=#FFFFFF;" vertex="1" parent="1">
          <mxGeometry x="860" y="510" width="50" height="50" as="geometry" />
        </mxCell>
        <mxCell id="NCGhJBN-21cvcJwLRavN-62" value="Empty EOS == True node after K is deleted first, then K itself is removed" style="text;html=1;strokeColor=none;fillColor=none;align=center;verticalAlign=middle;whiteSpace=wrap;rounded=0;" vertex="1" parent="1">
          <mxGeometry x="980" y="150" width="130" height="90" as="geometry" />
        </mxCell>
      </root>
    </mxGraphModel>
  </diagram>
</mxfile>
